<svg xmlns="http://www.w3.org/2000/svg" xmlns:xlink="http://www.w3.org/1999/xlink" width="235" height="100" viewBox="0 0 235 100">
    <defs>
        <path id="prefix__a" d="M0 99.275L234.582 99.275 234.582 -0.001 0 -0.001z"/>
    </defs>
    <g fill="none" fill-rule="evenodd">
        <path fill="#6DC6D8" d="M123.041 23.99l9.017 9.036-.64 1.285c-.758 1.526-1.144 3.15-1.144 4.826 0 5.997 4.886 10.876 10.89 10.876 6.006 0 10.89-4.879 10.89-10.876 0-5.996-4.884-10.874-10.89-10.874-1.665 0-3.278.378-4.796 1.124l-1.289.635-9.016-9.036.64-1.285c.758-1.526 1.142-3.15 1.142-4.827C127.845 8.878 122.96 4 116.955 4c-6.004 0-10.89 4.88-10.89 10.875 0 1.677.385 3.301 1.144 4.825l.641 1.286-9.018 9.037-1.288-.635c-1.519-.746-3.133-1.124-4.798-1.124-6.004 0-10.89 4.878-10.89 10.874 0 5.997 4.886 10.876 10.89 10.876 6.005 0 10.89-4.879 10.89-10.876 0-1.676-.384-3.3-1.144-4.826l-.64-1.285 9.017-9.036 1.29.635c3.036 1.492 6.556 1.493 9.594 0l1.288-.635zm18.123 30.023c-8.213 0-14.896-6.674-14.896-14.876 0-1.815.329-3.582.975-5.268l-5.063-5.074c-3.352 1.268-7.1 1.268-10.45 0l-5.063 5.074c.648 1.686.975 3.453.975 5.268 0 8.202-6.683 14.876-14.896 14.876-8.213 0-14.896-6.674-14.896-14.876 0-8.202 6.683-14.874 14.896-14.874 1.799 0 3.55.32 5.226.954l5.062-5.074c-.648-1.686-.975-3.453-.975-5.269C102.06 6.673 108.742 0 116.955 0c8.214 0 14.896 6.674 14.896 14.875 0 1.815-.327 3.583-.973 5.27l5.061 5.073c1.676-.634 3.428-.954 5.225-.954 8.214 0 14.896 6.672 14.896 14.874 0 8.202-6.682 14.876-14.896 14.876z"/>
        <path fill="#317BBE" d="M0 80.673L0 62.435 11.671 62.435 11.671 64.921 2.771 64.921 2.771 70.247 10.363 70.247 10.363 72.706 2.771 72.706 2.771 78.189 11.671 78.189 11.671 80.673zM24.415 80.826c-2.745 0-4.694-.64-6.463-2.408l1.82-1.819c1.335 1.332 2.848 1.768 4.696 1.768 2.41 0 3.769-1.025 3.769-2.818 0-.819-.206-1.459-.717-1.895-.462-.41-1.078-.64-2.002-.77l-2.155-.306c-1.487-.23-2.642-.692-3.437-1.46-.897-.82-1.359-1.997-1.359-3.51 0-3.175 2.309-5.327 6.105-5.327 2.437 0 4.104.614 5.668 2.074l-1.744 1.743c-1.128-1.076-2.462-1.41-4.027-1.41-2.155 0-3.309 1.18-3.309 2.845 0 .665.18 1.28.668 1.69.46.41 1 .666 2 .82l2.18.332c1.668.256 2.59.64 3.387 1.358.974.897 1.487 2.152 1.487 3.74 0 3.354-2.718 5.353-6.567 5.353M45.574 64.92h-4.002v6.096h4.002c1.95 0 3.231-1.127 3.231-3.048 0-1.947-1.282-3.048-3.231-3.048m.153 8.555h-4.155v7.197h-2.77V62.435h6.925c3.567 0 5.849 2.357 5.849 5.533s-2.282 5.507-5.849 5.507M63.449 66.56l-2.847 8.093h5.617l-2.77-8.094zm4.797 14.113l-1.258-3.663h-7.207l-1.257 3.663h-2.95l6.694-18.238h2.233l6.695 18.238h-2.95zM83.53 80.826c-2.002 0-3.54-.667-4.72-1.844-1.77-1.793-1.847-3.612-1.847-7.428 0-3.817.077-5.636 1.846-7.428 1.18-1.179 2.719-1.845 4.72-1.845 3.361 0 5.874 1.998 6.515 5.61h-2.82c-.411-1.87-1.668-3.15-3.695-3.15-1.103 0-2.027.41-2.693 1.126-.923.974-1.103 2.075-1.103 5.687 0 3.61.18 4.713 1.103 5.687.666.717 1.59 1.126 2.693 1.126 2.027 0 3.309-1.28 3.746-3.15h2.769c-.641 3.61-3.18 5.61-6.515 5.61"/>
        <mask id="prefix__b" fill="#fff">
            <use xlink:href="#prefix__a"/>
        </mask>
        <path fill="#317BBE" d="M97.837 80.673L100.608 80.673 100.608 62.435 97.837 62.435zM118.1 65.867c-.693-.717-1.616-1.127-2.719-1.127-1.103 0-2.027.41-2.718 1.127-.899.973-1.078 2.075-1.078 5.687s.18 4.688 1.078 5.661c.691.716 1.615 1.152 2.718 1.152s2.026-.436 2.719-1.152c.924-.948 1.077-2.05 1.077-5.661 0-3.612-.153-4.739-1.077-5.687m2.001 13.115c-1.18 1.178-2.72 1.844-4.72 1.844-2.001 0-3.54-.666-4.72-1.844-1.796-1.794-1.846-3.612-1.846-7.428 0-3.818.05-5.635 1.846-7.428 1.18-1.179 2.719-1.844 4.72-1.844 2 0 3.54.665 4.72 1.844 1.795 1.793 1.847 3.61 1.847 7.428 0 3.816-.052 5.634-1.847 7.428M149.028 65.867c-.693-.717-1.616-1.127-2.719-1.127-1.103 0-2.027.41-2.718 1.127-.899.973-1.078 2.075-1.078 5.687s.18 4.688 1.078 5.661c.691.716 1.615 1.152 2.718 1.152s2.026-.436 2.719-1.152c.924-.948 1.077-2.05 1.077-5.661 0-3.612-.153-4.739-1.077-5.687m2.001 13.115c-1.18 1.178-2.72 1.844-4.72 1.844-2.001 0-3.54-.666-4.72-1.844-1.796-1.794-1.846-3.612-1.846-7.428 0-3.818.05-5.635 1.846-7.428 1.18-1.179 2.719-1.844 4.72-1.844 2 0 3.54.665 4.72 1.844 1.795 1.793 1.847 3.61 1.847 7.428 0 3.816-.052 5.634-1.847 7.428M159.413 80.673L159.413 78.29 167.852 64.921 159.772 64.921 159.772 62.435 171.11 62.435 171.11 64.689 162.619 78.189 171.11 78.189 171.11 80.673zM187.445 65.867c-.693-.717-1.616-1.127-2.719-1.127-1.102 0-2.026.41-2.718 1.127-.899.973-1.078 2.075-1.078 5.687s.18 4.688 1.078 5.661c.692.716 1.616 1.152 2.718 1.152 1.103 0 2.026-.436 2.719-1.152.924-.948 1.077-2.05 1.077-5.661 0-3.612-.153-4.739-1.077-5.687m2.001 13.115c-1.18 1.178-2.72 1.844-4.72 1.844-2.001 0-3.54-.666-4.72-1.844-1.795-1.794-1.846-3.612-1.846-7.428 0-3.818.05-5.635 1.846-7.428 1.18-1.179 2.719-1.844 4.72-1.844 2 0 3.54.665 4.72 1.844 1.795 1.793 1.847 3.61 1.847 7.428 0 3.816-.052 5.634-1.847 7.428M210.706 80.673L202.268 67.839 202.268 80.673 199.497 80.673 199.497 62.435 202.037 62.435 210.475 75.242 210.475 62.435 213.246 62.435 213.246 80.673zM230.734 65.867c-.693-.717-1.615-1.127-2.718-1.127s-2.027.41-2.719 1.127c-.898.973-1.077 2.075-1.077 5.687s.179 4.688 1.077 5.661c.692.716 1.616 1.152 2.719 1.152 1.103 0 2.025-.436 2.718-1.152.924-.948 1.078-2.05 1.078-5.661 0-3.612-.154-4.739-1.078-5.687m2.002 13.115c-1.18 1.178-2.72 1.844-4.72 1.844-2.002 0-3.54-.666-4.72-1.844-1.796-1.794-1.847-3.612-1.847-7.428 0-3.818.05-5.635 1.847-7.428 1.18-1.179 2.718-1.844 4.72-1.844 2 0 3.54.665 4.72 1.844 1.794 1.793 1.846 3.61 1.846 7.428 0 3.816-.052 5.634-1.846 7.428M31.774 91.327h-2.24v3.46h2.24c1.09 0 1.836-.586 1.836-1.736 0-1.149-.746-1.724-1.836-1.724m.074 4.292h-2.314v3.583h-.93v-8.707h3.244c1.58 0 2.693 1.003 2.693 2.556 0 1.554-1.114 2.568-2.693 2.568M44.874 99.275c-1.763 0-3.037-1.21-3.037-2.946v-5.832h.93v5.758c0 1.32.833 2.188 2.107 2.188 1.273 0 2.119-.868 2.119-2.188v-5.758h.93v5.832c0 1.736-1.286 2.946-3.05 2.946M59.223 91.327h-2.326v3.192h2.326c1.016 0 1.738-.526 1.738-1.59s-.722-1.602-1.738-1.602zm1.751 7.875l-1.984-3.864h-2.093v3.864h-.93v-8.707h3.341c1.52 0 2.585.918 2.585 2.422 0 1.272-.773 2.104-1.899 2.336l2.07 3.95h-1.09zM69.64 99.202L70.571 99.202 70.571 90.497 69.64 90.497zM79.664 91.327L79.664 94.531 83.485 94.531 83.485 95.362 79.664 95.362 79.664 99.202 78.734 99.202 78.734 90.495 84.145 90.495 84.145 91.327zM91.478 99.202L92.408 99.202 92.408 90.497 91.478 90.497zM103.288 99.275c-.906 0-1.64-.318-2.179-.856-.82-.818-.87-1.577-.87-3.57 0-1.992.05-2.751.87-3.571.538-.537 1.273-.856 2.18-.856 1.579 0 2.718.967 3.024 2.593h-.955c-.234-1.076-.98-1.761-2.07-1.761-.587 0-1.101.208-1.506.61-.551.563-.611 1.2-.611 2.985s.06 2.421.611 2.982c.405.404.919.612 1.506.612 1.09 0 1.862-.684 2.094-1.76h.93c-.305 1.626-1.456 2.592-3.024 2.592M116.388 91.829l-1.641 4.597h3.256l-1.615-4.597zm2.583 7.373l-.698-1.97h-3.808l-.697 1.97h-.993l3.208-8.707h.784l3.196 8.707h-.992zM138.261 91.327L138.261 99.202 137.331 99.202 137.331 91.327 134.808 91.327 134.808 90.495 140.783 90.495 140.783 91.327zM150.968 99.275c-1.762 0-3.036-1.21-3.036-2.946v-5.832h.93v5.758c0 1.32.832 2.188 2.106 2.188s2.119-.868 2.119-2.188v-5.758h.93v5.832c0 1.736-1.285 2.946-3.049 2.946M173.246 91.829l-1.64 4.597h3.256l-1.616-4.597zm2.584 7.373l-.698-1.97h-3.808l-.697 1.97h-.994l3.209-8.707h.784l3.196 8.707h-.992zM183.871 99.202L184.802 99.202 184.802 90.497 183.871 90.497zM196.221 91.327h-2.326v3.192h2.326c1.016 0 1.738-.526 1.738-1.59s-.722-1.602-1.738-1.602zm1.752 7.875l-1.984-3.864h-2.094v3.864h-.93v-8.707h3.341c1.52 0 2.585.918 2.585 2.422 0 1.272-.773 2.104-1.898 2.336l2.07 3.95h-1.09zM206.64 99.202L206.64 90.496 212.053 90.496 212.053 91.327 207.57 91.327 207.57 94.396 211.392 94.396 211.392 95.228 207.57 95.228 207.57 98.37 212.053 98.37 212.053 99.202z" mask="url(#prefix__b)"/>
    </g>
</svg>
